<svg xmlns="http://www.w3.org/2000/svg" width="48" height="48" viewBox="0 0 256 256" fill="none" id="my-svg">
  <defs>
    <linearGradient id="gradient1">
      <stop class="stop1" offset="0%" stop-color="#8f66ff"></stop>
      <stop class="stop2" offset="100%" stop-color="#3d12ff"></stop>
    </linearGradient>
  </defs>
      <rect id="backgr" width="100" height="100" fill="none" rx="60"></rect>
  <g id="group" transform="translate(25.599999999999994,25.599900436401363) scale(0.8)">
    <path fill-rule="evenodd" clip-rule="evenodd" d="M117.333 21.859C66.940 26.863 26.863 66.939 21.860 117.332H42.667C48.558 117.332 53.333 122.109 53.333 127.999C53.333 133.890 48.558 138.666 42.667 138.666H21.860C26.863 189.060 66.940 229.136 117.333 234.140V213.332C117.333 207.442 122.109 202.666 128.000 202.666C133.891 202.666 138.667 207.442 138.667 213.332V234.140C189.060 229.136 229.137 189.060 234.140 138.666H213.333C207.442 138.666 202.667 133.890 202.667 127.999C202.667 122.109 207.442 117.332 213.333 117.332H234.140C229.137 66.939 189.060 26.863 138.667 21.859V42.666C138.667 48.557 133.891 53.333 128.000 53.333C122.109 53.333 117.333 48.557 117.333 42.666V21.859ZM138.667 85.333C138.667 79.442 133.891 74.666 128.000 74.666C122.109 74.666 117.333 79.442 117.333 85.333V127.999C117.333 132.039 119.616 135.733 123.230 137.540L144.563 148.207C149.833 150.842 156.239 148.705 158.874 143.437C161.508 138.167 159.373 131.760 154.103 129.125L138.667 121.407V85.333Z" fill="currentColor" stroke-width="14" id="filled" stroke="none" stroke-linecap="round" stroke-linejoin="round"></path>
  </g>
</svg>