<svg xmlns="http://www.w3.org/2000/svg" width="48" height="48" viewBox="0 0 256 256" fill="none" id="my-svg">
  <defs>
    <linearGradient id="gradient1">
      <stop class="stop1" offset="0%" stop-color="#8f66ff"></stop>
      <stop class="stop2" offset="100%" stop-color="#3d12ff"></stop>
    </linearGradient>
  </defs>
  <rect id="backgr" width="100" height="100" fill="none" rx="60"></rect>
  <g id="group" transform="translate(26.094776153564446,25.194045257568355) scale(0.8)">
    <path d="M48.379 42.131C32.192 58.318 29.721 82.580 35.664 106.352C41.668 130.365 56.589 155.936 78.549 177.895C100.509 199.856 126.080 214.777 150.092 220.780C173.865 226.723 198.126 224.253 214.314 208.065C221.092 201.286 225.529 192.951 227.891 183.817C228.836 180.160 227.777 176.275 225.106 173.604L191.685 140.183C188.318 136.816 183.125 136.089 178.962 138.402L150.460 154.239C141.343 148.382 132.317 141.154 123.804 132.641C115.290 124.127 108.062 115.102 102.206 105.984L118.043 77.482C120.356 73.319 119.629 68.126 116.261 64.759L82.840 31.338C80.169 28.667 76.285 27.608 72.628 28.553C63.493 30.916 55.158 35.352 48.379 42.131Z" fill="currentColor" stroke-width="14" id="filled" stroke="none" stroke-linecap="round" stroke-linejoin="round"></path>
  </g>
</svg>