<svg xmlns="http://www.w3.org/2000/svg" xmlns:svgjs="http://svgjs.com/svgjs" xmlns:xlink="http://www.w3.org/1999/xlink" width="35" height="35"><svg xmlns="http://www.w3.org/2000/svg" width="35" height="35" viewBox="0 0 24 24"><g class="color000 svgShape" data-name="Group 71182" transform="translate(-1670.959 -976.403)"><path fill="#1b1464" d="M1694.036,987.48h-10.154V977.326a.923.923,0,1,0-1.846,0V987.48h-10.154a.923.923,0,0,0,0,1.846h10.154V999.48a.923.923,0,0,0,1.846,0V989.326h10.154a.923.923,0,1,0,0-1.846Z" class="color2d77f4 svgShape" data-name="Path 62869"/><path fill="#1b1464" d="M1728.98,988.087a.924.924,0,0,0,1.306,0l1.193-1.193,1.193,1.193a.923.923,0,0,0,1.306-1.306l-1.193-1.193,1.193-1.193a.923.923,0,0,0-1.306-1.306l-1.193,1.193-1.193-1.193a.923.923,0,0,0-1.306,1.306l1.193,1.193-1.193,1.193A.925.925,0,0,0,1728.98,988.087Z" class="color2d77f4 svgShape" data-name="Path 62870" transform="translate(-41.135 -4.57)"/><path fill="#1b1464" d="M1676.159,984.988h1.539v1.538a.923.923,0,0,0,1.846,0v-1.538h1.538a.923.923,0,0,0,0-1.846h-1.538V981.6a.923.923,0,1,0-1.846,0v1.539h-1.539a.923.923,0,0,0,0,1.846Z" class="color2d77f4 svgShape" data-name="Path 62871" transform="translate(-3.046 -3.047)"/><path fill="#1b1464" d="M1681.082,1040.57h-4.923a.923.923,0,0,0,0,1.846h4.923a.923.923,0,0,0,0-1.846Z" class="color2d77f4 svgShape" data-name="Path 62872" transform="translate(-3.046 -45.705)"/><path fill="#1b1464" d="M1734.84,1031.3a.621.621,0,0,0-.621-.621h-4.882a.62.62,0,1,0,0,1.241h1.332a1.148,1.148,0,0,1,.973.534h-2.3a.621.621,0,1,0,0,1.241h2.3a1.149,1.149,0,0,1-.973.534h-1.332a.621.621,0,0,0-.439,1.06l2.662,2.663a.621.621,0,1,0,.878-.878l-1.609-1.609a2.381,2.381,0,0,0,2.151-1.77h1.238a.621.621,0,1,0,0-1.241h-1.238a2.4,2.4,0,0,0-.214-.534h1.452A.621.621,0,0,0,1734.84,1031.3Z" class="color2d77f4 svgShape" data-name="Path 62873" transform="translate(-41.14 -38.662)"/></g></svg></svg>