<svg xmlns="http://www.w3.org/2000/svg" xmlns:svgjs="http://svgjs.com/svgjs" xmlns:xlink="http://www.w3.org/1999/xlink" width="35" height="35"><svg xmlns="http://www.w3.org/2000/svg" width="35" height="35" viewBox="0 0 19.489 21.717"><g class="color000 svgShape" data-name="Group 71180"><path fill="#1b1464" d="M1428.874,970.22h-1.393v-1.392a.835.835,0,1,0-1.67,0v1.392h-7.24v-1.392a.835.835,0,1,0-1.67,0v1.392h-1.391a3.066,3.066,0,0,0-3.063,3.062v13.364a3.066,3.066,0,0,0,3.063,3.063h13.364a3.066,3.066,0,0,0,3.062-3.063V973.283A3.066,3.066,0,0,0,1428.874,970.22Zm-13.364,1.671h1.391v1.392a.835.835,0,0,0,1.67,0v-1.392h7.24v1.392a.835.835,0,1,0,1.67,0v-1.392h1.393a1.393,1.393,0,0,1,1.391,1.392v3.62h-16.149v-3.62A1.394,1.394,0,0,1,1415.51,971.891Zm13.364,16.148H1415.51a1.394,1.394,0,0,1-1.393-1.392v-8.074h16.149v8.074A1.394,1.394,0,0,1,1428.874,988.039Z" class="color2d77f4 svgShape" data-name="Path 62859" transform="translate(-1412.447 -967.993)"/><path fill="#1b1464" d="M1451.016,1030.771H1449.9a.835.835,0,0,0,0,1.671h.279v2.506a.835.835,0,1,0,1.67,0v-3.341A.835.835,0,0,0,1451.016,1030.771Z" class="color2d77f4 svgShape" data-name="Path 62860" transform="translate(-1441.271 -1017.407)"/></g></svg></svg>