<svg xmlns="http://www.w3.org/2000/svg" xmlns:svgjs="http://svgjs.com/svgjs" xmlns:xlink="http://www.w3.org/1999/xlink" width="35" height="35"><svg xmlns="http://www.w3.org/2000/svg" width="35" height="35" viewBox="0 0 21.539 24"><g class="color000 svgShape" data-name="Group 71181" transform="translate(-1540.894 -968.536)"><path fill="#1b1464" d="M1559.048,968.536h-14.769a3.388,3.388,0,0,0-3.385,3.385v17.231a3.389,3.389,0,0,0,3.385,3.384h14.769a3.389,3.389,0,0,0,3.385-3.384V971.921A3.389,3.389,0,0,0,1559.048,968.536Zm1.539,20.616a1.54,1.54,0,0,1-1.539,1.538h-14.769a1.54,1.54,0,0,1-1.539-1.538V971.921a1.54,1.54,0,0,1,1.539-1.539h14.769a1.54,1.54,0,0,1,1.539,1.539Z" class="color2d77f4 svgShape" data-name="Path 62861"/><path fill="#1b1464" d="M1571.273,989.377h-7.385a2.157,2.157,0,0,0-2.154,2.154v1.231a2.157,2.157,0,0,0,2.154,2.154h7.385a2.156,2.156,0,0,0,2.154-2.154v-1.231A2.156,2.156,0,0,0,1571.273,989.377Zm.308,3.384a.308.308,0,0,1-.308.308h-7.385a.308.308,0,0,1-.307-.308v-1.231a.308.308,0,0,1,.307-.308h7.385a.308.308,0,0,1,.308.308Z" class="color2d77f4 svgShape" data-name="Path 62862" transform="translate(-15.918 -15.918)"/><path fill="#1b1464" d="M1562.658,1025.871a.926.926,0,1,0,.923.93v-.012A.918.918,0,0,0,1562.658,1025.871Z" class="color2d77f4 svgShape" data-name="Path 62863" transform="translate(-15.918 -43.79)"/><path fill="#1b1464" d="M1583.5,1025.871a.926.926,0,1,0,.923.93v-.012A.918.918,0,0,0,1583.5,1025.871Z" class="color2d77f4 svgShape" data-name="Path 62864" transform="translate(-31.834 -43.79)"/><path fill="#1b1464" d="M1604.336,1025.871a.926.926,0,1,0,.923.93v-.012A.918.918,0,0,0,1604.336,1025.871Z" class="color2d77f4 svgShape" data-name="Path 62865" transform="translate(-47.75 -43.79)"/><path fill="#1b1464" d="M1562.658,1041.5a.926.926,0,1,0,.923.93v-.012A.918.918,0,0,0,1562.658,1041.5Z" class="color2d77f4 svgShape" data-name="Path 62866" transform="translate(-15.918 -55.727)"/><path fill="#1b1464" d="M1583.5,1041.5a.926.926,0,1,0,.923.93v-.012A.918.918,0,0,0,1583.5,1041.5Z" class="color2d77f4 svgShape" data-name="Path 62867" transform="translate(-31.834 -55.727)"/><path fill="#1b1464" d="M1604.336,1041.5a.926.926,0,1,0,.923.93v-.012A.918.918,0,0,0,1604.336,1041.5Z" class="color2d77f4 svgShape" data-name="Path 62868" transform="translate(-47.75 -55.727)"/></g></svg></svg>