<svg xmlns="http://www.w3.org/2000/svg" xmlns:svgjs="http://svgjs.com/svgjs" xmlns:xlink="http://www.w3.org/1999/xlink" width="50" height="50"><svg xmlns="http://www.w3.org/2000/svg" width="50" height="50" viewBox="0 0 37.057 36"><defs><clipPath id="a"><rect width="37.057" height="36" fill="#1b1464" class="color2d77f4 svgShape" data-name="Rectangle 4091"/></clipPath></defs><g class="color000 svgShape" clip-path="url(#a)" data-name="Group 25151"><path fill="#1b1464" d="M30.542,5.554V9.232a1.845,1.845,0,0,0-.275-.076A13.358,13.358,0,0,0,28.1,8.7l-.015-.32a1.672,1.672,0,0,0-1.3-1.892c-3.174-1.053-6.577-2.2-10.7-3.616a2.317,2.317,0,0,0-1.572,0C10.889,4.1,7.257,5.325,3.732,6.515A1.5,1.5,0,0,0,2.5,8.118c.015.946.015,1.907.015,2.869L2.5,16.235a14.484,14.484,0,0,0,2.258,8.011,25.842,25.842,0,0,0,9.888,8.682,1.406,1.406,0,0,0,1.389-.046c.5-.259.977-.534,1.45-.824a11.381,11.381,0,0,0,1.6,1.221c.214.137.427.275.656.4a35.359,35.359,0,0,1-4.089,2.258.388.388,0,0,1-.244.061,1.844,1.844,0,0,1-.519-.092A31.269,31.269,0,0,1,5.2,29.053a18.394,18.394,0,0,1-5.02-9.644,12.284,12.284,0,0,1-.168-1.984V6.073A1.2,1.2,0,0,1,1,4.761L9.424,1.907c1.739-.6,3.479-1.19,5.234-1.8A1.824,1.824,0,0,1,15.3,0a1.909,1.909,0,0,1,.656.107c4.1,1.419,8.545,2.93,13.565,4.608a1.913,1.913,0,0,1,1.022.839" class="color2d77f4 svgShape" data-name="Path 28519" transform="translate(0 .001)"/><path fill="#1b1464" d="M22.527,14.086V14.1l-.259-.168c-.259.381-.549.778-.87,1.205L18.8,18.588a.993.993,0,0,1-.824.427.772.772,0,0,1-.565-.244l-1.358-1.343c-.336-.336-.671-.671-1.022-1.038a.764.764,0,0,1-.259-.58.868.868,0,0,1,.275-.641.821.821,0,0,1,.6-.259.854.854,0,0,1,.641.275l1.022,1.007.7.519.534-.7c.443-.6.87-1.19,1.3-1.755l.992-1.328a.973.973,0,0,1,.671-.4l.214.031a.764.764,0,0,1,.366.137.778.778,0,0,1,.351.549.865.865,0,0,1-.153.656Z" class="color2d77f4 svgShape" data-name="Path 28520" transform="translate(7.77 6.59)"/><path fill="#1b1464" d="M26.221,8.813c-.214-.107-.427-.229-.656-.351a12.94,12.94,0,0,0-1.511-.6,11.271,11.271,0,0,0-2.274-.412c-.244-.015-.534-.015-.793-.015h-.015a10.659,10.659,0,0,0-5.8,19.608,12,12,0,0,0,2.121,1.068,11.1,11.1,0,0,0,3.677.641A10.661,10.661,0,0,0,26.221,8.813m.641,14.8h-.015a8.183,8.183,0,0,1-5.875,2.563H20.8a7.835,7.835,0,0,1-1.465-.168A8.051,8.051,0,0,1,13.007,16.5a8.073,8.073,0,0,1,7.919-6.485h.046a6.778,6.778,0,0,1,.961.061,7.55,7.55,0,0,1,1.816.458,7.691,7.691,0,0,1,2,1.083,5.347,5.347,0,0,1,.7.6,8.086,8.086,0,0,1,.412,11.4" class="color2d77f4 svgShape" data-name="Path 28521" transform="translate(5.42 3.913)"/></g></svg></svg>