<svg xmlns="http://www.w3.org/2000/svg" xmlns:svgjs="http://svgjs.com/svgjs" xmlns:xlink="http://www.w3.org/1999/xlink" width="50" height="50"><svg xmlns="http://www.w3.org/2000/svg" width="50" height="50" viewBox="0 0 36 36"><g class="color000 svgShape" data-name="Group 21276" transform="translate(-632.99 -334.114)"><path fill="#1b1464" d="M665.071,359.32c-1.183-1.165-2.348-2.352-3.531-3.513-.007-.007-.018-.014-.025-.022a.451.451,0,0,1-.076-.629,5.255,5.255,0,0,0,.734-3.369,5.623,5.623,0,0,0-8.4-4.225.093.093,0,0,1-.022.018.373.373,0,0,1-.518-.086c-.852-.87-1.715-1.726-2.574-2.585-.4-.4-.791-.8-1.2-1.187a1.072,1.072,0,0,0-.491-.276,1.13,1.13,0,0,0-1.34.871c-.026.107-.046.216-.064.325-.245,1.345-1.241,6.861-1.262,6.972-.28,1.471-.543,2.941-.805,4.412a1.065,1.065,0,0,1-.324.6l-6.091,6.1a2.921,2.921,0,0,0-.924,1.729,2.457,2.457,0,0,0,.647,2.1c1.187,1.223,2.391,2.438,3.621,3.621a2.433,2.433,0,0,0,2.4.6.545.545,0,0,1,.608.176c.892.91,1.794,1.8,2.743,2.751h.007l0,0,0,0a11.058,11.058,0,0,1-4.642-.277,10.777,10.777,0,0,1-8.205-9.234,11.233,11.233,0,0,1,2.913-9.486,10.114,10.114,0,0,1,5.565-3.137,1.113,1.113,0,0,0,.867-.893h0a1.11,1.11,0,0,0-1.34-1.277,13.087,13.087,0,0,0-2.364.815,13.425,13.425,0,0,0-7.454,8.472,17.02,17.02,0,0,0-.525,2.575v2.593c.018.083.04.162.05.241a12.95,12.95,0,0,0,4.164,8.234,13.08,13.08,0,0,0,13.934,2.837,13.432,13.432,0,0,0,8.8-12.477c0-.4.144-.511.5-.572,1.323-.219,2.643-.475,3.966-.7a1.226,1.226,0,0,0,1.122-.816A1.2,1.2,0,0,0,665.071,359.32Zm-9.633-10.147a2.98,2.98,0,0,1,1.136-.183l0,.007a3.429,3.429,0,0,1,3.243,4.559c-.126.352-.162.36-.428.093q-2.028-2.028-4.049-4.049C655.079,349.331,655.082,349.306,655.438,349.173Zm-10.809,19.28a.6.6,0,0,1-.457.227l-.022,0a.622.622,0,0,1-.421-.219q-1.618-1.607-3.222-3.225a.493.493,0,0,1-.137-.137.513.513,0,0,1,.137-.712q2.875-2.864,5.721-5.732c.169-.169.277-.147.428.007q1.828,1.845,3.671,3.668c.169.165.155.273,0,.428Zm8.1,3.488a13.276,13.276,0,0,1-1.845,1.007.389.389,0,0,1-.5-.1q-1.656-1.667-3.315-3.322c-.115-.112-.223-.216-.057-.374.507-.5,1.007-1.01,1.514-1.51a.229.229,0,0,1,.205-.094,1.22,1.22,0,0,1,.173.133c1.291,1.284,2.575,2.578,3.869,3.858C652.953,371.718,652.925,371.812,652.731,371.941Zm5-8.695a11.262,11.262,0,0,1-2.866,6.828c-.183.2-.295.18-.475,0q-1.947-1.969-3.916-3.916c-.194-.191-.183-.3,0-.478.654-.636,1.294-1.284,1.938-1.931a.785.785,0,0,1,.45-.245c1.507-.266,3.013-.547,4.513-.816C657.743,362.625,657.743,362.628,657.732,363.247Zm4.11-3.6q-4.514.82-9.029,1.658a.639.639,0,0,1-.644-.216q-2.13-2.157-4.29-4.29a.618.618,0,0,1-.2-.619q.847-4.633,1.69-9.27l.139-.043c.326.315.647.617.958.928q3.069,3.085,6.134,6.163,2.67,2.654,5.34,5.318c.083.083.23.13.2.266S661.95,359.63,661.842,359.651Z" class="color2d77f4 svgShape" data-name="Path 27981" transform="translate(0 -5.956)"/><path fill="#1b1464" d="M697.059,334.114a1.35,1.35,0,0,1,.712,1.369c-.017.6,0,1.191,0,1.787a1.107,1.107,0,1,1-2.2-.015c0-.6.015-1.214,0-1.822a1.269,1.269,0,0,1,.717-1.32Z" class="color2d77f4 svgShape" data-name="Path 27982" transform="translate(-40.071)"/><path fill="#1b1464" d="M722.934,367.459c-.373,0-.75.01-1.119,0a1.06,1.06,0,0,1-1.092-1.008,1.02,1.02,0,0,1,.868-1.152c.031,0,.061-.007.092-.009a13.284,13.284,0,0,1,2.48,0,1.016,1.016,0,0,1,.963,1.067c0,.032,0,.064-.009.1a1.061,1.061,0,0,1-1.1,1c-.361.012-.723,0-1.086,0Z" class="color2d77f4 svgShape" data-name="Path 27983" transform="translate(-56.181 -19.929)"/><path fill="#1b1464" d="M716.078,343.214a1.023,1.023,0,0,1,.974.62.99.99,0,0,1-.15,1.148q-.836.9-1.733,1.734a1.077,1.077,0,0,1-1.5-1.53c.55-.589,1.129-1.15,1.708-1.712a.936.936,0,0,1,.708-.26Z" class="color2d77f4 svgShape" data-name="Path 27984" transform="translate(-51.511 -5.826)"/></g></svg></svg>