<svg xmlns="http://www.w3.org/2000/svg" xmlns:svgjs="http://svgjs.com/svgjs" xmlns:xlink="http://www.w3.org/1999/xlink" width="50" height="50"><svg xmlns="http://www.w3.org/2000/svg" width="50" height="50" viewBox="0 0 35.989 36"><g class="color000 svgShape" data-name="Group 25150"><g class="color000 svgShape" data-name="Group 21274"><path fill="#1b1464" d="M734,262.626a3.546,3.546,0,0,0-1.073-1.771,2.835,2.835,0,0,0-3.743.086,1.182,1.182,0,0,0-.158,1.663,1.322,1.322,0,0,0,1.738.1l.126-.09a.454.454,0,0,1,.349-.04.483.483,0,0,1,.3.255.855.855,0,0,1-.108,1.076,1.23,1.23,0,0,1-1.735.119,1.211,1.211,0,0,1-.3-.4,10.677,10.677,0,0,0-1.771-2.444,11.2,11.2,0,0,0-3.465-2.493,1.174,1.174,0,0,0-1.664,1.067h0a1.179,1.179,0,0,0,.688,1.066,9.015,9.015,0,0,1,3.436,2.808,9.109,9.109,0,0,1,1.76,4.571c.014.148.022.3.025.454a11.57,11.57,0,0,1-1.573,5.546,2.53,2.53,0,0,0-.169.22l0-.007a8.926,8.926,0,0,1-2.239,2.159,2.3,2.3,0,0,0-.687.731l-2.26,3.639c-1.209-.014-2.415-.014-3.653,0v-1.447a1.232,1.232,0,0,0-1.1-1.357,1.1,1.1,0,0,0-.266,0h-4.7a1.2,1.2,0,0,0-1.364.986l-.14.464c-.13.443-.255.871-.385,1.353-.871-.014-1.742-.018-2.656,0v-2.825c0-1-.187-1.281-1.137-1.666a11.436,11.436,0,0,1-5.575-4.751.57.57,0,0,1-.112-.205v-4.031h.673a1.282,1.282,0,0,0,1.472-1.051c0-.014,0-.029,0-.04a8.89,8.89,0,0,1,2.829-4.279,8.761,8.761,0,0,1,4.6-2.023,5.046,5.046,0,0,0,.306.885h-.374a1.144,1.144,0,0,0-.8.371,1.2,1.2,0,0,0-.306.911,1.16,1.16,0,0,0,1.2,1.055h10.675a1.15,1.15,0,0,0,.691-.184,1.169,1.169,0,0,0-.59-2.149h-.36a5.667,5.667,0,0,0,.338-3.563,5.528,5.528,0,0,0-8.364-3.423,5.447,5.447,0,0,0-2.494,3.613.6.6,0,0,0-.022.115,9.768,9.768,0,0,0-2.267.49l-.148-.036h-.007a5.9,5.9,0,0,0-7.669.256,1.437,1.437,0,0,0-.558,1,1.4,1.4,0,0,0,.493,1.033c.68.687,1.357,1.371,2.091,2.091a10.8,10.8,0,0,0-1.35,2.548,11.319,11.319,0,0,0-1.159.007,1.6,1.6,0,0,0-.227.014,1.182,1.182,0,0,0-1.022,1.292v5.316a1.649,1.649,0,0,0,.2.846,14.125,14.125,0,0,0,6.575,6.007v3.39a1.2,1.2,0,0,0,1.047,1.328,1.22,1.22,0,0,0,.281,0h4.452a1.188,1.188,0,0,0,1.328-1c.173-.569.342-1.141.511-1.756h3v1.382a1.206,1.206,0,0,0,1.018,1.368,1.26,1.26,0,0,0,.349,0h5.24a1.428,1.428,0,0,0,1.267-.759c.544-.9,1.094-1.8,1.645-2.7l.705-1.144a.667.667,0,0,1,.184-.216,11.541,11.541,0,0,0,2.89-2.876,1.085,1.085,0,0,0,.108-.248l.018.011a17.056,17.056,0,0,0,1.908-6.341v-.133a5.037,5.037,0,0,0-.007-.522.656.656,0,0,0-.022-.126,9.645,9.645,0,0,0-.2-1.544l.008-.01A3.573,3.573,0,0,0,734,263.943l.014-.05Zm-21.59-5.237a3,3,0,0,1,2.8-1.911h.029a3.16,3.16,0,0,1,3,1.864,3.223,3.223,0,0,1-.571,3.483.409.409,0,0,1-.311.126c-.453-.011-.9-.007-1.357,0h-1.357c-.464,0-.932-.007-1.418,0-.086.032-.148-.025-.22-.119A3.074,3.074,0,0,1,712.407,257.389Zm-8.656,1.857v-.011a3.666,3.666,0,0,1,1.195.212,10.332,10.332,0,0,0-1.623,1.281c-.356-.378-.723-.752-1.109-1.134A3.661,3.661,0,0,1,703.751,259.246Z" class="color2d77f4 svgShape" data-name="Path 27977" transform="translate(-698.023 -247.294)"/><path fill="#1b1464" d="M748.666,239.934a1.29,1.29,0,0,0,0,.376,1.208,1.208,0,0,0,1.189,1.01,1.338,1.338,0,0,0,.186-.015,1.193,1.193,0,0,0,.78-.482,1.108,1.108,0,0,0,.22-.82v-.551c0-.354-.008-.711,0-1.032a1.488,1.488,0,0,0-.622-1.372l-.121-.087h-.911l-.122.089a1.463,1.463,0,0,0-.6,1.327c.007.36,0,.714,0,1.072Z" class="color2d77f4 svgShape" data-name="Path 27978" transform="translate(-730.43 -236.961)"/><path fill="#1b1464" d="M717.426,281.859a2.715,2.715,0,0,0-2.638,2.793v.007a2.656,2.656,0,0,0,2.656,2.656h.076a2.674,2.674,0,0,0,2.674-2.674v-.14A2.706,2.706,0,0,0,717.426,281.859Zm.032,3.729h-.007a.878.878,0,0,1-.878-.878v-.119a.9.9,0,0,1,.281-.655.929.929,0,0,1,.63-.259,1.07,1.07,0,0,1,.921.932A.988.988,0,0,1,717.458,285.587Z" class="color2d77f4 svgShape" data-name="Path 27979" transform="translate(-708.754 -265.7)"/><path fill="#1b1464" d="M732.839,244.764a1.236,1.236,0,0,0,1.214,1.256h.048a1.2,1.2,0,0,0,.824-.41,1.153,1.153,0,0,0,.3-.827c.015-.633.015-1.264,0-1.845a1.3,1.3,0,0,0-.013-.311,1.2,1.2,0,0,0-1.151-.977,1.18,1.18,0,0,0-1.211,1.236c-.007.22,0,.442,0,.659v.295l-.012.3v.618Z" class="color2d77f4 svgShape" data-name="Path 27980" transform="translate(-720.305 -239.962)"/></g></g></svg></svg>