<svg xmlns="http://www.w3.org/2000/svg" xmlns:svgjs="http://svgjs.com/svgjs" xmlns:xlink="http://www.w3.org/1999/xlink" width="50" height="50"><svg xmlns="http://www.w3.org/2000/svg" width="50" height="50" viewBox="0 0 35.813 36"><g class="color000 svgShape" data-name="Group 71168" transform="translate(-266.789 -628.453)"><g class="color000 svgShape" data-name="Path 62846"><path fill="#1b1464" d="M302.453,650.561v-.015a2.845,2.845,0,0,0-1.713-2.455c-.849-.424-2.182-1.122-3.395-1.758-1.3-.682-2.652-1.394-2.819-1.455a1.136,1.136,0,0,0-.864.03c-.955.455-2.349,1.122-2.486,1.2-.515.273-1.031.561-1.561.834-.849.47-1.682.924-2.546,1.364a2.247,2.247,0,0,0-1.273,2.016,18.7,18.7,0,0,0,.712,6.805l.076.243h-14.55a2.281,2.281,0,0,1-1.728-.515,2.362,2.362,0,0,1-.864-1.607,2.282,2.282,0,0,1,0-.455V638.754a2.678,2.678,0,0,1,.834-2q2.478-2.41,4.941-4.865a2.584,2.584,0,0,1,1.895-.773h11.928a2.373,2.373,0,0,1,2.531,2.2v7.139a1.346,1.346,0,0,0,1.319,1.334h.015a1.327,1.327,0,0,0,1.319-1.334v-7.078a4.933,4.933,0,0,0-4.85-4.9c-3.107-.03-6.275-.03-9.321-.015h-3.183a4.856,4.856,0,0,0-3.425,1.44c-1.713,1.682-3.425,3.38-5.138,5.062a5,5,0,0,0-1.516,3.668v8.139c0,2.7,0,5.411.015,8.124a4.6,4.6,0,0,0,.136,1.288,4.975,4.975,0,0,0,4.835,3.835h.136q7.775.023,15.55,0h.106a.784.784,0,0,1,.606.318,10.127,10.127,0,0,0,5.714,4.047,1.743,1.743,0,0,0,.924.015,9.851,9.851,0,0,0,6.76-5.987A16.08,16.08,0,0,0,302.453,650.561Zm-2.531,1.97a11.768,11.768,0,0,1-1.228,5.744,7.245,7.245,0,0,1-4.032,3.395,1.859,1.859,0,0,1-.288.03.809.809,0,0,1-.379-.076,7.928,7.928,0,0,1-4.926-5.229,14.554,14.554,0,0,1-.636-5.471.683.683,0,0,1,.318-.485c1.607-.879,3.3-1.8,5.032-2.728a.766.766,0,0,1,.606,0c1.652.864,3.3,1.758,5.077,2.728a.75.75,0,0,1,.318.485c.076.546.106,1.091.136,1.455Z" class="color2d77f4 svgShape" data-name="Path 115681"/></g><g class="color000 svgShape" data-name="Path 62847"><path fill="#1b1464" d="M283.621,638.109a1.309,1.309,0,0,1-.864,1.228l-.076.015a2.217,2.217,0,0,1-.47.061h-8.806a1.312,1.312,0,0,1-1.334-.879,1.2,1.2,0,0,1,.364-1.409,2.029,2.029,0,0,1,.985-.349c.667-.015,1.334-.015,2.016-.015h6.881A1.323,1.323,0,0,1,283.621,638.109Z" class="color2d77f4 svgShape" data-name="Path 115682" transform="translate(2.675 4.283)"/></g><g class="color000 svgShape" data-name="Path 62848"><path fill="#1b1464" d="M279.1,642.7a1.344,1.344,0,0,1-.409.94,1.246,1.246,0,0,1-.925.379c-.045.015-.076,0-.136,0h-4.244a1.326,1.326,0,0,1,0-2.652h4.3a1.247,1.247,0,0,1,.955.318,1.276,1.276,0,0,1,.44.909A.259.259,0,0,1,279.1,642.7Z" class="color2d77f4 svgShape" data-name="Path 115683" transform="translate(2.723 6.652)"/></g></g></svg></svg>