<svg width="80" height="81" viewBox="0 0 80 81" fill="none" xmlns="http://www.w3.org/2000/svg">
<g clip-path="url(#clip0_5805_56033)">
<path d="M40.2066 16.3185C40.9926 16.3185 41.7666 16.3695 42.4866 16.4895C43.1957 16.5824 43.8953 16.737 44.5776 16.9515C45.2616 17.1585 45.9306 17.4165 46.5996 17.7405C47.2506 18.0495 47.9196 18.4275 48.5886 18.8385C49.7196 19.5585 50.8326 20.1405 51.9666 20.6055C54.199 21.499 56.5597 22.0307 58.9596 22.1805C60.1776 22.2675 61.4286 22.3185 62.7306 22.3185V34.3185C62.7306 36.5985 62.4396 38.7585 61.8576 40.8165C61.2985 42.8451 60.5041 44.8014 59.4906 46.6455C58.4813 48.487 57.2871 50.2209 55.9266 51.8205C54.5451 53.4564 53.0494 54.9922 51.4506 56.4165C49.8306 57.8449 48.1244 59.1724 46.3416 60.3915C44.5596 61.6275 42.7596 62.7765 40.9596 63.8205L40.2396 64.2495L39.5196 63.8205C37.6692 62.7492 35.8618 61.6053 34.1016 60.3915C32.3088 59.1861 30.6017 57.858 28.9926 56.4165C27.3947 54.9922 25.9 53.4563 24.5196 51.8205C23.1627 50.2141 21.9632 48.4812 20.9376 46.6455C19.9414 44.7932 19.1478 42.8389 18.5706 40.8165C17.9849 38.7007 17.6961 36.5138 17.7126 34.3185V22.3185C19.0176 22.3185 20.2686 22.2675 21.4866 22.1805C22.6856 22.0972 23.8768 21.9257 25.0506 21.6675C26.1996 21.4095 27.3486 21.0675 28.4796 20.6055C29.6532 20.1318 30.7784 19.5461 31.8396 18.8565C33.1596 17.9985 34.4976 17.3655 35.8176 16.9485C37.2392 16.5127 38.7198 16.3001 40.2066 16.3185V16.3185ZM59.7126 25.2675C57.4417 25.1573 55.1919 24.7776 53.0106 24.1365C50.8408 23.4892 48.7741 22.5367 46.8726 21.3075C45.8863 20.6601 44.8151 20.1522 43.6896 19.7985C42.5653 19.4587 41.3961 19.2908 40.2216 19.3005C39.0384 19.2928 37.8606 19.4606 36.7266 19.7985C35.5994 20.1407 34.5296 20.6494 33.5526 21.3075C31.6477 22.5434 29.5757 23.5001 27.3996 24.1485C25.2726 24.7665 23.0466 25.1445 20.7126 25.2825V34.3335C20.7126 36.3225 20.9706 38.2245 21.4866 40.0575C22.0123 41.8745 22.7366 43.6281 23.6466 45.2865C24.5674 46.9621 25.6528 48.5419 26.8866 50.0025C28.1376 51.4755 29.4726 52.8465 30.9126 54.1485C32.3526 55.4535 33.8616 56.6535 35.4396 57.7665C37.0326 58.8825 38.6286 59.8935 40.2216 60.8175C41.8527 59.8679 43.4431 58.85 44.9886 57.7665C46.577 56.657 48.094 55.4486 49.5306 54.1485C50.9706 52.8465 52.3086 51.4755 53.5596 50.0025C54.7935 48.542 55.8789 46.9622 56.7996 45.2865C57.7055 43.6302 58.4191 41.8758 58.9266 40.0575C59.4583 38.1963 59.7229 36.2691 59.7126 34.3335V25.2675V25.2675Z" fill="currentColor"></path>
<path fill-rule="evenodd" clip-rule="evenodd" d="M51.3905 30.4455L50.0705 29.3115L48.8525 29.4165L35.7725 44.8605L31.3175 38.5005L30.1175 38.2965L28.7285 39.2895L28.5215 40.4895L34.2485 48.6675L34.8995 49.0275L36.2705 49.1115L36.9725 48.8055L51.4775 31.6605L51.3905 30.4455V30.4455Z" fill="currentColor  "></path>
</g>
<defs>
<clipPath id="clip0_5805_56033">
<rect width="48" height="48" fill="white" transform="translate(16 16.3184)"></rect>
</clipPath>
</defs>
</svg>