<?xml version="1.0" encoding="utf-8"?>
<!-- Generator: Adobe Illustrator 26.0.1, SVG Export Plug-In . SVG Version: 6.00 Build 0)  -->
<svg version="1.1" id="Layer_1" xmlns="http://www.w3.org/2000/svg" xmlns:xlink="http://www.w3.org/1999/xlink" x="0px" y="0px"
	 viewBox="0 0 100 100" style="enable-background:new 0 0 100 100;" xml:space="preserve">
<style type="text/css">
	.st0{fill:#292D32;}
</style>
<path class="st0" d="M51.1,58.8c4.9,0,8.8-3.9,8.8-8.8c0-4.9-3.9-8.8-8.8-8.8c-4.9,0-8.8,3.9-8.8,8.8C42.3,54.9,46.2,58.8,51.1,58.8
	z"/>
<path class="st0" d="M51.1,23.8c4.9,0,8.8-3.9,8.8-8.8c0-4.9-3.9-8.8-8.8-8.8s-8.8,3.9-8.8,8.8C42.3,19.9,46.2,23.8,51.1,23.8z"/>
<path class="st0" d="M51.1,93.8c4.9,0,8.8-3.9,8.8-8.8c0-4.9-3.9-8.8-8.8-8.8s-8.8,3.9-8.8,8.8C42.3,89.8,46.2,93.8,51.1,93.8z"/>
</svg>
